<svg width="78" height="69" viewBox="0 0 78 69" fill="none" xmlns="http://www.w3.org/2000/svg">
<path d="M19.3319 68.96C15.8759 68.96 12.7079 68.096 9.82788 66.368C7.01188 64.576 4.73988 62.24 3.01188 59.36C1.34788 56.416 0.515875 53.184 0.515875 49.664V45.248C0.515875 44.928 0.675875 44.768 0.995875 44.768H11.7479C12.0039 44.768 12.1319 44.928 12.1319 45.248V49.664C12.1319 51.776 12.8359 53.6 14.2439 55.136C15.6519 56.608 17.3479 57.344 19.3319 57.344C21.3159 57.344 23.0119 56.576 24.4199 55.04C25.8279 53.504 26.5319 51.712 26.5319 49.664C26.5319 47.296 24.9959 45.248 21.9239 43.52C20.8999 42.944 19.2999 42.048 17.1239 40.832C14.9479 39.616 12.8999 38.464 10.9799 37.376C7.45988 35.328 4.83588 32.768 3.10788 29.696C1.44388 26.56 0.611875 23.04 0.611875 19.136C0.611875 15.552 1.47588 12.352 3.20388 9.536C4.93188 6.656 7.20388 4.384 10.0199 2.72C12.8999 1.056 16.0039 0.223997 19.3319 0.223997C22.7239 0.223997 25.8279 1.088 28.6439 2.816C31.5239 4.48 33.7959 6.752 35.4599 9.632C37.1879 12.448 38.0519 15.616 38.0519 19.136V27.008C38.0519 27.264 37.9239 27.392 37.6679 27.392H26.9159C26.6599 27.392 26.5319 27.264 26.5319 27.008L26.4359 19.136C26.4359 16.896 25.7319 15.072 24.3239 13.664C22.9159 12.256 21.2519 11.552 19.3319 11.552C17.3479 11.552 15.6519 12.32 14.2439 13.856C12.8359 15.328 12.1319 17.088 12.1319 19.136C12.1319 21.248 12.5799 23.008 13.4759 24.416C14.3719 25.824 16.0039 27.168 18.3719 28.448C18.6919 28.64 19.2999 28.992 20.1959 29.504C21.1559 29.952 22.1799 30.496 23.2679 31.136C24.3559 31.712 25.3159 32.224 26.1479 32.672C27.0439 33.12 27.5879 33.408 27.7799 33.536C30.9799 35.328 33.5079 37.536 35.3639 40.16C37.2199 42.72 38.1479 45.888 38.1479 49.664C38.1479 53.312 37.2839 56.608 35.5559 59.552C33.8919 62.432 31.6199 64.736 28.7399 66.464C25.9239 68.128 22.7879 68.96 19.3319 68.96ZM58.6934 68.96C55.1094 68.96 51.8774 68.128 48.9974 66.464C46.1814 64.736 43.9414 62.4 42.2774 59.456C40.6774 56.448 39.8774 53.088 39.8774 49.376V44.96C39.8774 44.704 40.0054 44.576 40.2614 44.576H51.1094C51.3654 44.576 51.4934 44.736 51.4934 45.056V49.376C51.4934 51.744 52.1654 53.664 53.5094 55.136C54.8534 56.608 56.5814 57.344 58.6934 57.344C60.6134 57.344 62.2774 56.544 63.6854 54.944C65.0934 53.344 65.7974 51.488 65.7974 49.376V1.664C65.7974 1.408 65.9254 1.27999 66.1814 1.27999H76.9334C77.1894 1.27999 77.3174 1.43999 77.3174 1.75999L77.4134 49.376C77.4134 52.896 76.5494 56.16 74.8214 59.168C73.1574 62.112 70.9174 64.48 68.1014 66.272C65.2854 68.064 62.1494 68.96 58.6934 68.96Z" fill="#BCBCBC"/>
</svg>
