<svg width="126" height="59" viewBox="0 0 126 59" fill="none" xmlns="http://www.w3.org/2000/svg">
<path d="M62.8993 29.6174C62.8993 29.6174 76.9293 6.23486 95.6368 6.23486C108.498 6.23486 119.019 16.7561 119.019 29.6174C119.019 42.4786 108.496 52.9999 95.6368 52.9999C76.9293 52.9999 62.8993 29.6174 62.8993 29.6174ZM62.8993 29.6174C62.8993 29.6174 48.8693 52.9999 30.1618 52.9999C17.303 52.9999 6.7793 42.4786 6.7793 29.6174C6.7793 16.7561 17.303 6.23486 30.1618 6.23486C49.3378 6.23486 62.8993 29.6174 62.8993 29.6174Z" stroke="#BCBCBC" stroke-width="12" stroke-miterlimit="10"/>
<path d="M18.9785 24.7373H43.3785V34.4973H18.9785V24.7373ZM82.4185 24.7373H106.819V34.4973H82.4185V24.7373Z" fill="#BCBCBC"/>
<path d="M89.7402 17.4175H99.5002V41.8175H89.7402V17.4175Z" fill="#BCBCBC"/>
</svg>
