<svg width="92" height="100" viewBox="0 0 92 100" fill="none" xmlns="http://www.w3.org/2000/svg">
<path d="M87.2125 21.7423L50.5969 1.1691C47.8228 -0.389701 44.3769 -0.389701 41.6006 1.1691L4.98498 21.7423C2.18479 23.3163 0.443359 26.26 0.443359 29.4254V70.574C0.443359 73.7373 2.18261 76.681 4.98498 78.255L41.6006 98.8303C42.9877 99.6087 44.5443 100 46.0988 100C47.6532 100 49.2098 99.6108 50.5969 98.8303L87.2125 78.2572C90.0149 76.6788 91.7542 73.7351 91.7542 70.5718V29.4254C91.7542 26.26 90.0127 23.3163 87.2125 21.7423ZM46.0988 76.0874C31.713 76.0874 20.01 64.3844 20.01 49.9986C20.01 35.6128 31.713 23.9098 46.0988 23.9098C54.3167 23.9098 61.9151 27.7253 66.8437 34.2171L57.3213 39.7305C54.4559 36.5999 50.3882 34.7802 46.0988 34.7802C37.7069 34.7802 30.8803 41.6067 30.8803 49.9986C30.8803 58.3905 37.7069 65.2171 46.0988 65.2171C50.3882 65.2171 54.4559 63.3974 57.3213 60.2668L66.8437 65.7802C61.9151 72.2719 54.3167 76.0874 46.0988 76.0874ZM72.1876 52.1727H67.8394V56.5208H63.4913V52.1727H59.1432V47.8246H63.4913V43.4764H67.8394V47.8246H72.1876V52.1727ZM87.406 52.1727H83.0579V56.5208H78.7098V52.1727H74.3616V47.8246H78.7098V43.4764H83.0579V47.8246H87.406V52.1727Z" fill="#BCBCBC"/>
</svg>
