<svg width="101" height="102" viewBox="0 0 101 102" fill="none" xmlns="http://www.w3.org/2000/svg">
<path d="M40.0478 57.8528V44.6548L50.7794 38.0558L61.5109 44.6548V57.8528L50.7794 63.9441L40.0478 57.8528Z" fill="#BCBCBC"/>
<path d="M63.555 59.1218L50.7794 66.736V74.8578L69.9428 62.9289V50.2386L63.555 46.1776V59.1218Z" fill="#BCBCBC"/>
<path d="M38.0037 43.3858V56.3299L31.3604 52.269V39.3248L50.7794 28.1574V36.0253L38.0037 43.3858Z" fill="#BCBCBC"/>
<path d="M28.8052 38.0558V74.8578L20.1177 69.7817V32.7259L49.7573 14.8156V3.03171C-5.93352 7.64482 -12.7388 75.0617 33.0241 95.6706C33.4817 94.9273 34.2854 94.4011 35.4543 94.4018C39.4317 94.4043 39.1804 100.49 35.4543 100.493C33.6061 100.495 32.6128 98.9956 32.5665 97.4842C-15.8995 78.8753 -8.8368 5.15416 49.7573 1.06397V1H50.7794H51.8015V14.8156L81.4409 32.7259V69.7817L51.8015 87.9374V98.7157C103.124 97.1939 117.448 26.9864 67.7474 6.37306C67.2554 7.09317 66.448 7.59899 65.3436 7.59899C61.5108 7.59899 61.2553 1.50755 65.3436 1.50761C67.3877 1.50764 68.3459 3.03052 68.3139 4.55337L68.4097 4.29949C117.938 24.7354 108.387 98.3395 51.8015 100.961V101H50.7794H49.7573V87.9289L36.4706 79.6802V69.0203L50.7794 77.6497L72.7535 64.4517V38.0558L50.7794 24.8579L28.8052 38.0558Z" fill="#BCBCBC"/>
<path d="M49.7573 87.9289L36.4706 79.6802V69.0203L50.7794 77.6497L72.7535 64.4517V38.0558L50.7794 24.8579L28.8052 38.0558V74.8579L20.1177 69.7817V32.7259L49.7573 14.8156M49.7573 87.9289L50.7794 88.5634L51.8015 87.9374M49.7573 87.9289V101H50.7794M51.8015 87.9374L81.4409 69.7817V32.7259L51.8015 14.8156M51.8015 87.9374C51.8015 93.0387 51.8015 95.8987 51.8015 101H50.7794M50.7794 101C108.27 99.2233 118.235 24.8579 68.4097 4.29949L68.0265 5.31472L67.6432 6.32995C117.468 26.8883 103.16 97.1929 51.8015 98.7157M51.8015 14.8156L50.7794 14.198L49.7573 14.8156M51.8015 14.8156V1H50.7794M49.7573 14.8156V1H50.7794M50.7794 1C-8.75352 4.2994 -16.1799 78.7684 32.5672 97.4844M49.7631 3.03123C-5.93305 7.64015 -12.7404 75.061 33.0241 95.6706M40.0478 44.6548V57.8528L50.7794 63.9441L61.5109 57.8528V44.6548L50.7794 38.0558L40.0478 44.6548ZM50.7794 66.736L63.555 59.1218V46.1776L69.9428 50.2386V62.9289L50.7794 74.8579V66.736ZM38.0037 56.3299V43.3858L50.7794 36.0253V28.1574L31.3604 39.3248V52.269L38.0037 56.3299ZM65.3435 7.59899C69.1763 7.59899 69.4318 1.50767 65.3435 1.50761C61.2553 1.50755 61.5108 7.59899 65.3435 7.59899ZM35.4543 94.4018C39.4317 94.4043 39.1804 100.49 35.4543 100.493C31.7283 100.497 31.477 94.3994 35.4543 94.4018Z" stroke="#BCBCBC"/>
</svg>
